<svg version="1.1" id="Layer_1" xmlns="http://www.w3.org/2000/svg" x="0" y="0" viewBox="0 0 100 100" style="enable-background:new 0 0 100 100" xml:space="preserve"><style>.st0{fill:#b6d5dc}</style><path class="st0" d="M50 73.9c-20.4 0-26.4-4.2-27-4.8l.2-3.8c.1-.1 5.5-4.8 5.5-11.8 0-9.1 2.1-16.4 6.2-21.5 3.8-4.7 9.2-7.3 15.2-7.3s10.5 2.6 14.2 7.3c4.1 5.1 7.2 12.3 7.2 21.5 0 7 5.4 11.8 5.5 11.8l.2 2.8c-.8.5-6.8 5.8-27.2 5.8zm-23-7.2c.7.3 1.6.6 2.7.9 3.6 1.1 10.1 2.4 20.8 2.4 13.1 0 19.1-2 22.5-3.4-2.3-2.9-5.4-6-5.4-12.6 0-8.6-1.9-14.6-5.6-19.1-3.1-3.9-6.5-6-11.5-6s-10.4 2.1-13.5 6c-3.7 4.6-4.6 10.5-4.6 19.1-.1 6.6-3.1 9.7-5.4 12.7z"/><path class="st0" d="M50 85c-6.3 0-11.4-6.1-11.4-11.5l3.7-.4c0 3.9 3.5 8 7.7 8s7.7-4 7.7-8l3.7.4c0 5.4-5.1 11.5-11.4 11.5zm6.3-63.9c-2.5-2.5-10.6-2.5-13 0l-1.6-2.7c4.5-4.5 11.8-4.5 16.3 0l-1.7 2.7z"/></svg>