<svg viewBox="0 0 22 20" fill="none" xmlns="http://www.w3.org/2000/svg"><path d="M11 0c5.82 0 11 3.91 11 9.24a8.2 8.2 0 0 1-2.03 5.35l1.14 4.35a.85.85 0 0 1-1.1 1.02l-5.83-1.88a13 13 0 0 1-3.18.4c-5.82 0-11-3.92-11-9.24 0-5.37 5.23-9.24 11-9.24Zm0 16.78c1.02 0 2.02-.14 2.98-.4a.87.87 0 0 1 .5.01l4.58 1.48-.87-3.3a.84.84 0 0 1 .2-.78 6.61 6.61 0 0 0 1.9-4.55c0-4.16-4.17-7.55-9.29-7.55-5.12 0-9.28 3.39-9.28 7.55s4.16 7.54 9.28 7.54Zm-1.07-7.54a1.07 1.07 0 0 0 2.14 0c0-.59-.48-1.06-1.07-1.06-.6 0-1.07.47-1.07 1.06Zm-4.3 0c0 .58.48 1.06 1.07 1.06.6 0 1.08-.48 1.08-1.06 0-.59-.48-1.06-1.08-1.06-.59 0-1.07.47-1.07 1.06Zm8.6 0a1.07 1.07 0 0 0 2.14 0c0-.59-.48-1.06-1.07-1.06-.6 0-1.08.47-1.08 1.06Z" fill="#fff"/></svg>