<svg viewBox="0 0 197 56" fill="none" xmlns="http://www.w3.org/2000/svg"><g clip-path="url(#a)"><path d="M191.3 55.32h-185.55a5.22 5.22 0 0 1-3.66-1.49 5.04 5.04 0 0 1-1.52-3.59v-44.48c0-1.34.55-2.63 1.52-3.59a5.22 5.22 0 0 1 3.66-1.5h185.56a5.25 5.25 0 0 1 3.65 1.5 5.09 5.09 0 0 1 1.51 3.6v44.47a5 5 0 0 1-3.18 4.7c-.63.25-1.3.38-1.98.38Z" stroke="#fff"/><path d="M43.31 27.7c-.04-4.7 3.9-6.98 4.08-7.09a8.83 8.83 0 0 0-6.91-3.68c-2.91-.3-5.73 1.71-7.21 1.71-1.52 0-3.8-1.68-6.26-1.63a9.23 9.23 0 0 0-7.75 4.65c-3.35 5.72-.85 14.11 2.36 18.73 1.6 2.26 3.48 4.79 5.94 4.7 2.4-.1 3.3-1.51 6.2-1.51 2.88 0 3.72 1.5 6.22 1.45 2.58-.04 4.2-2.27 5.76-4.55 1.85-2.6 2.6-5.15 2.63-5.28-.06-.02-5-1.88-5.06-7.5Zm-4.73-13.8a8.23 8.23 0 0 0 1.93-5.96 8.64 8.64 0 0 0-5.56 2.83c-1.2 1.37-2.26 3.62-1.98 5.73 2.1.16 4.26-1.04 5.6-2.6Zm39.54 30.86h-3.36l-1.84-5.7h-6.4l-1.75 5.7h-3.27l6.34-19.38h3.91l6.37 19.38Zm-5.75-8.08-1.67-5.06c-.17-.52-.5-1.73-.99-3.65h-.06c-.2.82-.5 2.04-.93 3.65l-1.64 5.06h5.29Zm22.01.92c0 2.38-.65 4.26-1.96 5.64a5.81 5.81 0 0 1-4.38 1.84c-1.88 0-3.23-.66-4.05-1.98v7.33h-3.15v-15.05c0-1.5-.04-3.02-.12-4.6h2.77l.18 2.22h.06a5.27 5.27 0 0 1 4.79-2.5 5.3 5.3 0 0 1 4.19 1.95 7.65 7.65 0 0 1 1.67 5.15Zm-3.2.12a5.7 5.7 0 0 0-.94-3.37 3.25 3.25 0 0 0-2.75-1.38 3.53 3.53 0 0 0-3.36 2.76 4 4 0 0 0-.14.95v2.33c0 1.01.32 1.87.95 2.57.63.7 1.45 1.05 2.47 1.05 1.18 0 2.1-.45 2.77-1.35.66-.9 1-2.09 1-3.56Zm19.53-.12c0 2.38-.66 4.26-1.97 5.64a5.81 5.81 0 0 1-4.38 1.84c-1.88 0-3.23-.66-4.05-1.98v7.33h-3.15v-15.05c0-1.5-.04-3.02-.12-4.6h2.78l.17 2.22h.06a5.27 5.27 0 0 1 4.79-2.5 5.3 5.3 0 0 1 4.2 1.95 7.66 7.66 0 0 1 1.67 5.15Zm-3.22.12a5.7 5.7 0 0 0-.93-3.37 3.24 3.24 0 0 0-2.74-1.38 3.52 3.52 0 0 0-3.36 2.76c-.1.39-.15.7-.15.95v2.33c0 1.01.32 1.87.95 2.57.63.7 1.45 1.05 2.47 1.05 1.19 0 2.11-.45 2.77-1.35.66-.9 1-2.09 1-3.56Zm21.47 1.6c0 1.66-.59 3-1.75 4.03-1.28 1.13-3.07 1.7-5.36 1.7-2.12 0-3.82-.4-5.1-1.2l.73-2.6a8.83 8.83 0 0 0 4.55 1.21c1.2 0 2.12-.26 2.78-.79.66-.53 1-1.23 1-2.11 0-.79-.28-1.45-.83-1.98a7.63 7.63 0 0 0-2.71-1.5c-3.45-1.26-5.17-3.12-5.17-5.55 0-1.6.6-2.9 1.82-3.91a7.3 7.3 0 0 1 4.84-1.53c1.79 0 3.28.31 4.46.93l-.79 2.53a7.91 7.91 0 0 0-3.78-.9c-1.11 0-1.98.27-2.6.81-.53.48-.8 1.06-.8 1.76 0 .76.3 1.4.9 1.9.53.45 1.49.95 2.87 1.49a9.7 9.7 0 0 1 3.73 2.35c.8.9 1.2 2.03 1.2 3.37Zm10.45-6.2h-3.48v6.78c0 1.73.62 2.59 1.84 2.59.57 0 1.03-.05 1.4-.15l.1 2.36a7.3 7.3 0 0 1-2.46.35 3.81 3.81 0 0 1-2.92-1.13c-.7-.75-1.05-2-1.05-3.76v-7.05h-2.07v-2.33h2.07v-2.56l3.1-.92v3.48h3.47v2.34Zm15.65 4.54a7.6 7.6 0 0 1-1.87 5.29 6.72 6.72 0 0 1-5.2 2.13 6.4 6.4 0 0 1-4.98-2.04 7.37 7.37 0 0 1-1.85-5.15c0-2.16.64-3.94 1.91-5.32a6.68 6.68 0 0 1 5.16-2.07c2.08 0 3.75.68 5.02 2.05a7.27 7.27 0 0 1 1.8 5.11Zm-3.27.07c0-1.28-.28-2.38-.84-3.3a3.13 3.13 0 0 0-2.84-1.66c-1.26 0-2.23.55-2.89 1.66a6.28 6.28 0 0 0-.84 3.36c0 1.28.28 2.38.84 3.3a3.2 3.2 0 0 0 2.87 1.66c1.2 0 2.15-.56 2.83-1.69.58-.94.87-2.05.87-3.33Zm13.52-4.21a5.56 5.56 0 0 0-1-.09 3 3 0 0 0-2.56 1.24 4.61 4.61 0 0 0-.79 2.76v7.33h-3.15v-9.57c0-1.47-.03-2.94-.1-4.4h2.75l.12 2.67h.09a4.8 4.8 0 0 1 1.57-2.21 3.85 3.85 0 0 1 2.28-.75c.3 0 .56.02.79.06v2.96Zm14.1 3.6c.01.47-.03.94-.11 1.4h-9.46c.03 1.38.5 2.44 1.37 3.17.8.65 1.83.97 3.1.97 1.4 0 2.67-.22 3.82-.66l.5 2.16a12 12 0 0 1-4.76.86c-2.2 0-3.93-.64-5.19-1.91-1.25-1.27-1.88-2.99-1.88-5.13 0-2.1.59-3.86 1.76-5.26a6.08 6.08 0 0 1 4.96-2.24c2.04 0 3.6.74 4.64 2.24a7.46 7.46 0 0 1 1.25 4.4Zm-3-.81a4.15 4.15 0 0 0-.62-2.39 2.76 2.76 0 0 0-2.5-1.3 3 3 0 0 0-2.52 1.27 4.6 4.6 0 0 0-.93 2.42h6.57Zm-110.79-17.78c-.88 0-1.64-.04-2.27-.11v-9.37c.88-.14 1.78-.2 2.67-.2 3.62 0 5.28 1.75 5.28 4.6 0 3.3-1.97 5.08-5.68 5.08Zm.53-8.48c-.5 0-.9.03-1.25.1v7.12c.18.03.54.04 1.05.04 2.36 0 3.71-1.32 3.71-3.81 0-2.22-1.22-3.45-3.51-3.45Zm10.34 8.55c-2.04 0-3.36-1.5-3.36-3.53 0-2.12 1.35-3.63 3.48-3.63 2 0 3.35 1.42 3.35 3.52 0 2.14-1.39 3.64-3.47 3.64Zm.06-6.05c-1.12 0-1.84 1.03-1.84 2.47 0 1.42.73 2.45 1.82 2.45 1.1 0 1.83-1.1 1.83-2.47 0-1.4-.72-2.45-1.81-2.45Zm15.04-.97-2.19 6.87h-1.42l-.9-2.99a21.2 21.2 0 0 1-.56-2.22h-.03c-.12.75-.33 1.5-.56 2.22l-.96 2.99h-1.44l-2.05-6.87h1.6l.78 3.26c.19.78.35 1.51.48 2.2h.03c.1-.57.3-1.3.57-2.18l.99-3.28h1.26l.95 3.2c.23.78.42 1.55.56 2.27h.04c.1-.7.26-1.46.48-2.26l.84-3.21h1.53Zm8.03 6.87h-1.55v-3.95c0-1.21-.48-1.82-1.41-1.82-.92 0-1.55.78-1.55 1.68v4.09h-1.55v-4.9c0-.62-.02-1.27-.06-1.97h1.37l.07 1.06h.04a2.51 2.51 0 0 1 2.21-1.2c1.47 0 2.43 1.1 2.43 2.9v4.1Zm4.27 0h-1.55v-10.02h1.55v10.02Zm5.65.15c-2.04 0-3.36-1.5-3.36-3.53 0-2.12 1.35-3.63 3.47-3.63 2.02 0 3.36 1.42 3.36 3.52 0 2.14-1.39 3.64-3.47 3.64Zm.06-6.05c-1.12 0-1.84 1.03-1.84 2.47 0 1.42.73 2.45 1.82 2.45 1.1 0 1.82-1.1 1.82-2.47 0-1.4-.71-2.45-1.8-2.45Zm9.52 5.9-.1-.8h-.05a2.4 2.4 0 0 1-2.04.95c-1.25 0-2.14-.86-2.14-2.02 0-1.7 1.5-2.57 4.08-2.57v-.13c0-.9-.49-1.36-1.45-1.36-.69 0-1.29.17-1.82.51l-.31-1c.64-.4 1.44-.6 2.39-.6 1.82 0 2.74.95 2.74 2.85v2.53c0 .69.03 1.23.1 1.64h-1.4Zm-.2-3.43c-1.73 0-2.6.42-2.6 1.39 0 .72.45 1.07 1.07 1.07.79 0 1.52-.59 1.52-1.4v-1.06Zm9.03 3.43-.08-1.1h-.04c-.44.83-1.2 1.25-2.24 1.25-1.68 0-2.92-1.46-2.92-3.5 0-2.15 1.29-3.67 3.05-3.67.93 0 1.6.31 1.97.94h.03v-3.94h1.55v8.16c0 .67.02 1.29.06 1.86h-1.38Zm-.23-4.05c0-.96-.65-1.78-1.64-1.78-1.14 0-1.85 1-1.85 2.42 0 1.38.73 2.33 1.82 2.33.98 0 1.67-.83 1.67-1.82v-1.15Zm11.39 4.2c-2.04 0-3.36-1.5-3.36-3.53 0-2.12 1.35-3.63 3.47-3.63 2.01 0 3.36 1.42 3.36 3.52 0 2.14-1.39 3.64-3.47 3.64Zm.05-6.05c-1.11 0-1.83 1.03-1.83 2.47 0 1.42.73 2.45 1.82 2.45s1.82-1.1 1.82-2.47c0-1.4-.71-2.45-1.8-2.45Zm11.75 5.9h-1.55v-3.95c0-1.21-.47-1.82-1.4-1.82-.92 0-1.55.78-1.55 1.68v4.09h-1.55v-4.9c0-.62-.02-1.27-.06-1.97h1.36l.08 1.06h.04a2.51 2.51 0 0 1 2.2-1.2c1.47 0 2.44 1.1 2.44 2.9v4.1Zm10.43-5.73h-1.7v3.34c0 .85.3 1.27.9 1.27.27 0 .5-.03.69-.07l.04 1.16c-.3.11-.7.17-1.2.17-1.22 0-1.95-.67-1.95-2.4v-3.47h-1.02v-1.14h1.02v-1.26l1.52-.45v1.7h1.7v1.15Zm8.2 5.73h-1.54v-3.92c0-1.23-.47-1.85-1.4-1.85-.81 0-1.56.54-1.56 1.63v4.14h-1.55v-10.02h1.55v4.12h.03a2.36 2.36 0 0 1 2.1-1.12c1.48 0 2.38 1.13 2.38 2.93v4.09Zm8.41-3.07h-4.65c.03 1.3.9 2.03 2.2 2.03a5.3 5.3 0 0 0 1.88-.32l.24 1.06a5.9 5.9 0 0 1-2.34.42c-2.18 0-3.47-1.36-3.47-3.46 0-2.1 1.32-3.69 3.3-3.69 1.78 0 2.9 1.3 2.9 3.27 0 .23-.01.46-.06.69Zm-1.42-1.09c0-1.06-.54-1.8-1.53-1.8-.9 0-1.6.75-1.7 1.8h3.23Z" fill="#fff"/></g><defs><clipPath id="a"><path fill="#fff" d="M0 0h197v56h-197z"/></clipPath></defs></svg>