<svg viewBox="0 0 197 56" fill="none" xmlns="http://www.w3.org/2000/svg"><g clip-path="url(#a)"><path d="M189.7 55.39h-182.4c-3.84 0-6.8-2.87-6.8-6.48v-41.83c0-3.6 2.96-6.47 6.8-6.47h182.4c3.84 0 6.8 2.87 6.8 6.47v41.83c0 3.61-2.97 6.48-6.8 6.48Z" stroke="#fff"/><path d="M69.17 14.34c0 1.11-.3 2.09-1.02 2.78a4.4 4.4 0 0 1-3.21 1.26 4.4 4.4 0 0 1-3.21-1.26 4.01 4.01 0 0 1-1.32-3.06 4 4 0 0 1 1.32-3.07 4.4 4.4 0 0 1 4.96-.84c.58.28 1.02.56 1.31.98l-.73.7c-.58-.7-1.31-.98-2.33-.98-.88 0-1.75.28-2.34.98-.73.55-1.02 1.39-1.02 2.37 0 .97.3 1.8 1.02 2.37.73.55 1.46.97 2.34.97a3.3 3.3 0 0 0 2.48-.97c.44-.42.73-.98.73-1.68h-3.21v-1.11h4.23v.56Zm6.71-3.49h-3.94v2.65h3.65v.97h-3.65v2.65h3.94v1.12h-5.1v-8.37h5.1v.98Zm4.82 7.39h-1.17v-7.39h-2.48v-.98h6.13v.98h-2.48v7.39Zm6.71 0v-8.37h1.17v8.37h-1.17Zm6.13 0h-1.17v-7.39h-2.48v-.98h5.98v.98h-2.48v7.39h.15Zm13.86-1.12a4.4 4.4 0 0 1-3.2 1.26 4.4 4.4 0 0 1-3.22-1.26 4 4 0 0 1-1.31-3.06 4 4 0 0 1 1.31-3.07 4.4 4.4 0 0 1 3.21-1.26 4.4 4.4 0 0 1 3.21 1.26 4 4 0 0 1 1.31 3.07 4 4 0 0 1-1.3 3.06Zm-5.54-.7a3.5 3.5 0 0 0 2.33.98 3 3 0 0 0 2.34-.97 3.29 3.29 0 0 0 1.02-2.37c0-.98-.3-1.82-1.02-2.37a3.52 3.52 0 0 0-2.34-.98c-.87 0-1.75.28-2.33.98a3.3 3.3 0 0 0-1.03 2.37c0 .97.3 1.8 1.03 2.37Zm8.46 1.82v-8.37h1.31l4.23 6.56v-6.56h1.17v8.37h-1.17l-4.52-6.83v6.83h-1.02Z" fill="#fff" stroke="#fff" stroke-width="1.185" stroke-miterlimit="10"/><path d="M99.38 30.51c-3.5 0-6.28 2.51-6.28 6 0 3.34 2.77 6 6.28 6 3.5 0 6.27-2.52 6.27-6 0-3.63-2.77-6-6.27-6Zm0 9.48c-1.9 0-3.5-1.53-3.5-3.62 0-2.1 1.6-3.63 3.5-3.63s3.5 1.4 3.5 3.63c0 2.09-1.6 3.62-3.5 3.62Zm-13.58-9.48c-3.5 0-6.27 2.51-6.27 6 0 3.34 2.77 6 6.27 6 3.5 0 6.28-2.52 6.28-6 0-3.63-2.77-6-6.28-6Zm0 9.48c-1.9 0-3.5-1.53-3.5-3.62 0-2.1 1.6-3.63 3.5-3.63s3.5 1.4 3.5 3.63c0 2.09-1.6 3.62-3.5 3.62Zm-16.2-7.67v2.51h6.28a5.17 5.17 0 0 1-1.46 3.2 6.61 6.61 0 0 1-4.81 1.82 6.64 6.64 0 0 1-6.86-6.7 6.72 6.72 0 0 1 6.86-6.68c2.04 0 3.64.83 4.81 1.8l1.9-1.8a9.58 9.58 0 0 0-6.57-2.51c-5.25 0-9.77 4.18-9.77 9.2s4.52 9.2 9.77 9.2c2.92 0 4.96-.84 6.72-2.65a8.18 8.18 0 0 0 2.33-5.85c0-.56 0-1.12-.15-1.54h-9.04Zm66.26 1.95c-.59-1.39-2.05-3.76-5.26-3.76a5.73 5.73 0 0 0-5.83 6c0 3.34 2.62 6 6.13 6a6.04 6.04 0 0 0 5.1-2.66l-2.04-1.4c-.73.98-1.6 1.68-3.06 1.68s-2.34-.56-3.07-1.81l8.32-3.35-.3-.7Zm-8.47 1.96c0-2.23 1.9-3.49 3.21-3.49 1.03 0 2.05.56 2.34 1.26l-5.55 2.23Zm-6.86 5.71h2.78v-17.43h-2.78v17.43Zm-4.37-10.18a4.9 4.9 0 0 0-3.36-1.39 6.12 6.12 0 0 0-5.98 6 5.9 5.9 0 0 0 5.98 5.85c1.46 0 2.63-.7 3.21-1.4h.15v.84c0 2.24-1.32 3.49-3.36 3.49a3.23 3.23 0 0 1-3.06-2.1l-2.34.98a6.02 6.02 0 0 0 5.55 3.5c3.2 0 5.83-1.82 5.83-6.14v-10.6h-2.62v.97Zm-3.21 8.23c-1.9 0-3.5-1.53-3.5-3.62 0-2.1 1.6-3.63 3.5-3.63s3.35 1.53 3.35 3.63c0 2.09-1.46 3.62-3.35 3.62Zm35.6-15.48h-6.56v17.43h2.77v-6.55h3.8c3.06 0 5.98-2.1 5.98-5.44 0-3.34-2.92-5.44-5.99-5.44Zm.15 8.37h-3.94v-6h3.94a3.14 3.14 0 0 1 3.2 2.93c-.14 1.54-1.3 3.07-3.2 3.07Zm16.78-2.51c-2.04 0-4.09.84-4.82 2.65l2.49.98c.58-.98 1.45-1.26 2.48-1.26 1.46 0 2.77.84 2.91 2.23v.14c-.43-.28-1.6-.7-2.77-.7-2.63 0-5.25 1.4-5.25 3.9 0 2.38 2.19 3.91 4.52 3.91 1.9 0 2.78-.83 3.5-1.67h.15v1.4h2.63v-6.7c-.3-3.07-2.78-4.88-5.84-4.88Zm-.3 9.62c-.87 0-2.18-.42-2.18-1.53 0-1.4 1.6-1.82 2.92-1.82 1.17 0 1.75.28 2.48.56a3.35 3.35 0 0 1-3.21 2.8Zm15.33-9.2-3.06 7.53h-.15l-3.21-7.53h-2.92l4.82 10.6-2.78 5.85h2.78l7.44-16.45h-2.92Zm-24.51 11.15h2.77v-17.43h-2.78v17.43Z" fill="#fff"/><path d="M15.18 10.57c-.44.42-.59 1.12-.59 1.95v30.82c0 .83.3 1.53.73 1.95l.15.14 18.1-17.3v-.27l-18.4-17.29Z" fill="url(#b)"/><path d="m39.4 34-5.98-5.72v-.42l5.98-5.72.15.14 7.15 3.9c2.04 1.12 2.04 2.94 0 4.05l-7.3 3.77Z" fill="url(#c)"/><path d="m39.55 33.86-6.13-5.86-18.24 17.43c.73.7 1.75.7 3.06.14l21.3-11.71Z" fill="url(#d)"/><path d="m39.55 22.14-21.3-11.57c-1.32-.7-2.34-.56-3.07.14l18.24 17.29 6.13-5.86Z" fill="url(#e)"/><path opacity=".2" d="m39.4 33.72-21.16 11.43c-1.17.7-2.19.56-2.92 0l-.14.14.14.14c.73.56 1.75.7 2.92 0l21.16-11.71Z" fill="#000"/><path opacity=".12" d="M15.18 45.15c-.44-.42-.59-1.12-.59-1.95v.14c0 .83.3 1.53.73 1.95v-.14h-.14Zm31.52-15.34-7.3 3.9.15.15 7.15-3.9c1.02-.57 1.46-1.26 1.46-1.96 0 .7-.59 1.25-1.46 1.81Z" fill="#000"/><path opacity=".25" d="m18.24 10.71 28.46 15.48c.87.56 1.46 1.11 1.46 1.81 0-.7-.44-1.4-1.46-1.95l-28.46-15.48c-2.04-1.11-3.65-.28-3.65 1.95v.14c0-2.09 1.6-3.07 3.65-1.95Z" fill="#fff"/></g><defs><linearGradient id="b" x1="31.812" y1="12.258" x2="8.435" y2="36.722" gradientUnits="userSpaceOnUse"><stop stop-color="#00A0FF"/><stop offset=".007" stop-color="#00A1FF"/><stop offset=".26" stop-color="#00BEFF"/><stop offset=".512" stop-color="#00D2FF"/><stop offset=".76" stop-color="#00DFFF"/><stop offset="1" stop-color="#00E3FF"/></linearGradient><linearGradient id="c" x1="49.373" y1="28.001" x2="14.063" y2="28.001" gradientUnits="userSpaceOnUse"><stop stop-color="#FFE000"/><stop offset=".409" stop-color="#FFBD00"/><stop offset=".775" stop-color="orange"/><stop offset="1" stop-color="#FF9C00"/></linearGradient><linearGradient id="d" x1="36.229" y1="31.201" x2="4.53" y2="64.377" gradientUnits="userSpaceOnUse"><stop stop-color="#FF3A44"/><stop offset="1" stop-color="#C31162"/></linearGradient><linearGradient id="e" x1="10.648" y1=".359" x2="24.804" y2="15.174" gradientUnits="userSpaceOnUse"><stop stop-color="#32A071"/><stop offset=".069" stop-color="#2DA771"/><stop offset=".476" stop-color="#15CF74"/><stop offset=".801" stop-color="#06E775"/><stop offset="1" stop-color="#00F076"/></linearGradient><clipPath id="a"><path fill="#fff" d="M0 0h197v56h-197z"/></clipPath></defs></svg>