<svg xmlns="http://www.w3.org/2000/svg" viewBox="0 0 100 100" style="enable-background:new 0 0 100 100" xml:space="preserve"><path d="M50 75.7c-.4 0-.8-.1-1.2-.4-12.9-10.6-18.8-20.4-21.5-26.9-.7-1.6-1.3-3.3-1.7-5-.1-.5-.2-.7-.2-.8-.2-1.6-.4-3.2-.4-4.8 0-14 11.2-25.3 25-25.3s25 11.4 25 25.3c0 1.6-.1 3.2-.4 4.8 0 .1-.1.4-.2.8-.4 1.7-.9 3.4-1.7 5-2.7 6.4-8.6 16.3-21.6 26.8-.3.3-.7.5-1.1.5zm-20.9-33.7a21.62 21.62 0 0 0 1.5 4.9v.1c2.4 5.8 7.7 14.7 19.3 24.4 11.7-9.7 17-18.6 19.4-24.4v-.1c.6-1.4 1.1-2.8 1.4-4.3.1-.3.1-.5.1-.6v-.1c.3-1.3.4-2.7.4-4.1 0-11.9-9.6-21.6-21.3-21.6-11.7 0-21.3 9.7-21.3 21.6.1 1.4.2 2.8.5 4.2zm21.2 10.9c-8.4 0-15.2-6.9-15.2-15.4s6.8-15.5 15.2-15.5c3.1 0 6 .9 8.5 2.6.8.6 1.1 1.7.5 2.6-.6.9-1.7 1.1-2.6.5-1.9-1.3-4.1-2-6.4-2-6.4 0-11.5 5.2-11.5 11.7 0 6.4 5.2 11.7 11.5 11.7s11.5-5.2 11.5-11.7c0-1.6-.3-3.1-.9-4.6-.4-1 0-2.1 1-2.5.9-.4 2 0 2.4 1 .8 1.9 1.2 4 1.2 6.1 0 8.6-6.8 15.5-15.2 15.5zm22.1 25.4c0-2.1-1.3-5-7.8-7.1-1-.3-2 .2-2.3 1.2-.3 1 .2 2 1.2 2.4 3.6 1.2 5.2 2.7 5.2 3.6 0 1.9-6.6 5.5-18.6 5.5s-18.6-3.6-18.6-5.5c0-.9 1.6-2.3 5-3.5 1-.3 1.5-1.4 1.2-2.4-.3-1-1.4-1.5-2.3-1.2-6.2 2.1-7.5 5-7.5 7.1 0 6.1 11.2 9.2 22.3 9.2 10.9-.1 22.2-3.3 22.2-9.3z" style="fill:#b6d5dc"/></svg>