<svg viewBox="0 0 54 55" fill="none" xmlns="http://www.w3.org/2000/svg"><rect x="26.87" y="1.894" width="36" height="36" rx="4" transform="rotate(45 26.87 1.894)" stroke="#fff" stroke-width="2"/><path d="M27 31.14a4.14 4.14 0 1 0 0-8.28 4.14 4.14 0 0 0 0 8.28Z" fill="#fff"/><path d="M31.97 17.2c-2.47-.07-7.44-.07-9.92 0-1.29.03-2.75.35-3.67 1.34a5.25 5.25 0 0 0-1.35 3.62c-.07 2.42 0 9.68 0 9.68.04 1.37.4 2.6 1.35 3.62.92.99 2.38 1.3 3.67 1.34 2.48.07 7.45.07 9.92 0 1.3-.03 2.76-.35 3.68-1.34a5.25 5.25 0 0 0 1.35-3.62v-9.68a5.25 5.25 0 0 0-1.35-3.62c-.92-.99-2.39-1.3-3.68-1.34Zm-4.96 16.24a6.46 6.46 0 0 1-4.56-11 6.45 6.45 0 1 1 4.56 11Zm6.48-11.55a1.29 1.29 0 1 1 0-2.58 1.29 1.29 0 0 1 0 2.58Z" fill="#fff"/></svg>