<svg version="1.1" id="Layer_1" xmlns="http://www.w3.org/2000/svg" x="0" y="0" viewBox="0 0 100 100" style="enable-background:new 0 0 100 100" xml:space="preserve"><style>.st0{fill:#b6d5dc}</style><path class="st0" d="M76.1 81.7h-30.6c-2.8 0-8.4-3.7-8.4-6.6v-27.3c0-.6.3-1.2.9-1.5 6.1-3.4 9.2-9.5 12.4-18.9v-9c0-.3.1-.6.2-.9 1-1.7 2.8-2.7 4.8-2.7 2.6 0 5.4 1.6 7.4 4.2 2 2.7 4.9 8.6 2.5 19h14c3.1 0 10.2 3.2 10.2 8.5 0 1.7-.2 4.4-1.3 6 .9 2.4 1 6.4-1.6 9.2.2 4.7-1 8.1-3.5 10 0 2.5-1.2 5.5-2.9 7.5-1.2 1.7-2.6 2.5-4.1 2.5zm-35.6-32.7v25.8c.3.9 3.6 3.2 5 3.2h30.1c.4 0 1-.4 1.6-1 1.3-1.5 2.2-4.2 2-5.9-.1-.7.2-1.3.8-1.7 2.7-1.4 2.7-5.7 2.5-8.1 0-.5.2-1 .6-1.4 2.4-2 1.6-5.6 1-6.7-.3-.4-.3-1-.2-1.5.2-.5.6-.9 1.1-1-.1-.1.4-1.4.4-3.8 0-2.7-4.9-5.1-6.7-5.1h-15.8c-.5 0-1-.2-1.3-.6-.3-.4-.4-.9-.3-1.4 2.1-7.4 1.6-14-1.4-17.9-1.6-2.1-3.4-2.9-4.7-2.9-.7 0-1.3.2-1.7.7v8.6c0 .2 0 .4-.1.5-3.2 9.5-6.5 16.2-12.9 20.2z"/><path class="st0" d="M34.6 85h-18.3c-3.2 0-5.8-2.6-5.8-5.9v-35c0-3.2 2.6-5.9 5.8-5.9h18.3c3.2 0 5.8 2.6 5.8 5.9v35c0 3.3-2.6 5.9-5.8 5.9zm-17.7-43c-1.3 0-2.4 1.1-2.4 2.4v34.1c0 1.4 1.1 2.5 2.4 2.5h17.2c1.3 0 2.4-1.1 2.4-2.5v-34c0-1.3-1.1-2.4-2.4-2.4h-17.2z"/></svg>