<svg viewBox="0 0 54 55" fill="none" xmlns="http://www.w3.org/2000/svg"><rect x="26.87" y="2.375" width="36" height="36" rx="4" transform="rotate(45 26.87 2.375)" stroke="#fff" stroke-width="2"/><path d="M20.16 28.83c-.57 1.12.08 1.66 1.57 2.59 1.26.78 3 1.06 4.13 1.18l-4.42 4.25c-1.29 1.23.78 3.21 2.07 2l3.48-3.35c1.33 1.28 2.61 2.5 3.48 3.36 1.29 1.21 3.36-.75 2.09-2l-4.44-4.26c1.14-.11 2.86-.42 4.1-1.18 1.5-.93 2.14-1.47 1.58-2.6-.34-.63-1.27-1.17-2.5-.24 0 0-1.65 1.26-4.32 1.26a7.58 7.58 0 0 1-4.33-1.26c-1.23-.93-2.15-.4-2.49.25Z" fill="#fff"/><path d="M26.98 28.13a5.81 5.81 0 0 0 5.91-5.68 5.81 5.81 0 0 0-5.91-5.69 5.81 5.81 0 0 0-5.92 5.7 5.81 5.81 0 0 0 5.92 5.67Zm0-8.48c1.6 0 2.9 1.25 2.9 2.8 0 1.54-1.3 2.8-2.9 2.8-1.6 0-2.9-1.26-2.9-2.8a2.84 2.84 0 0 1 2.9-2.8Z" fill="#fff"/></svg>