<svg version="1.1" id="Layer_1" xmlns="http://www.w3.org/2000/svg" x="0" y="0" viewBox="0 0 100 100" style="enable-background:new 0 0 100 100" xml:space="preserve"><style>.st0{fill:#b6d5dc}</style><path class="st0" d="M76.1 83h-52.2c-3.8 0-6.9-3.2-6.9-7.1v-22.3c0-1.9.7-3.6 1.9-4.9 1.3-1.4 3.1-2.2 5-2.2h52.2c3.8 0 6.9 3.2 6.9 7.1v22.2c0 4-3 7.2-6.9 7.2zm-52.2-32.9c-.8 0-1.6.4-2.3 1.1-.7.6-1 1.5-1 2.5v22.2c0 1.9 1.5 3.6 3.2 3.6h52.2c1.8 0 3.2-1.6 3.2-3.6v-22.3c0-1.9-1.5-3.6-3.2-3.6h-52.1z"/><path class="st0" d="M80.2 49.4h-3.7v-26.2c0-1.5-1.2-2.6-2.8-2.6h-47.2c-.7 0-1.5.3-2 .8s-.7 1.1-.7 1.8v26.2h-3.8v-26.2c0-1.6.7-3.2 1.8-4.4a6.6 6.6 0 0 1 4.6-1.9h47.3c3.5 0 6.4 2.8 6.4 6.2v26.3z"/><path class="st0" d="M71 49.6c-1 0-1.8-.8-1.8-1.8v-4.7h-38.8v4.7c0 1-.8 1.8-1.8 1.8s-1.8-.8-1.8-1.8v-6.6c0-1 .8-1.8 1.8-1.8h42.4c1 0 1.8.8 1.8 1.8v6.6c.1 1-.8 1.8-1.8 1.8z"/><path class="st0" d="M67.8 42c-1 0-1.8-.8-1.8-1.8v-3.7h-31.9v3.7c0 1-.8 1.8-1.8 1.8s-1.8-.8-1.8-1.8v-5.5c0-1 .8-1.8 1.8-1.8h35.5c1 0 1.8.8 1.8 1.8v5.5c0 1-.9 1.8-1.8 1.8z"/><path class="st0" d="M64.5 35.1c-1 0-1.8-.8-1.8-1.8v-3.5h-25v3.5c0 1-.8 1.8-1.8 1.8s-1.8-.8-1.8-1.8v-5.3c0-1 .8-1.8 1.8-1.8h28.8c1 0 1.8.8 1.8 1.8v5.3c-.1 1-.9 1.8-2 1.8zm-4.8 34.7h-19c-1 0-1.8-.8-1.8-1.8v-4.6c0-1 .8-1.8 1.8-1.8s1.8.8 1.8 1.8v2.8h15.3v-2.8c0-1 .8-1.8 1.8-1.8s1.8.8 1.8 1.8v4.6c.2 1-.6 1.8-1.7 1.8z"/></svg>