<svg viewBox="0 0 54 55" fill="none" xmlns="http://www.w3.org/2000/svg"><rect x="26.87" y="2.154" width="36" height="36" rx="4" transform="rotate(45 26.87 2.154)" stroke="#fff" stroke-width="2"/><path d="M37 21.64a8.3 8.3 0 0 1-2.36.64 3.97 3.97 0 0 0 1.8-2.26c-.8.49-1.67.81-2.6 1a3.94 3.94 0 0 0-2.98-1.3c-1.13 0-2.1.4-2.9 1.2a3.93 3.93 0 0 0-1.09 3.83 11.6 11.6 0 0 1-8.43-4.28 4 4 0 0 0-.56 2.06 4.09 4.09 0 0 0 1.82 3.4 4.06 4.06 0 0 1-1.85-.51v.05c0 .99.31 1.85.93 2.6.62.75 1.4 1.22 2.35 1.41a4.24 4.24 0 0 1-1.85.08 4 4 0 0 0 1.45 2.02 4 4 0 0 0 2.38.82 8 8 0 0 1-6.07 1.7c1.9 1.22 4 1.83 6.28 1.83 1.46 0 2.82-.23 4.1-.7a10.4 10.4 0 0 0 3.26-1.84 12.37 12.37 0 0 0 3.8-5.81 11.62 11.62 0 0 0 .47-3.82 8.57 8.57 0 0 0 2.05-2.12Z" fill="#fff"/></svg>