<svg viewBox="0 0 54 54" fill="none" xmlns="http://www.w3.org/2000/svg"><rect x="26.87" y="1.414" width="36" height="36" rx="4" transform="rotate(45 26.87 1.414)" stroke="#fff" stroke-width="2"/><path fill-rule="evenodd" clip-rule="evenodd" d="M35.53 28.64c.8.77 1.63 1.5 2.35 2.36.31.38.61.77.84 1.21.32.63.03 1.32-.53 1.36h-3.5a2.7 2.7 0 0 1-2.23-.9c-.48-.5-.93-1.03-1.4-1.53-.18-.21-.38-.4-.62-.56-.48-.31-.9-.22-1.17.28-.28.5-.34 1.07-.37 1.63-.03.82-.28 1.04-1.1 1.08a8.94 8.94 0 0 1-5.01-1.08 11.05 11.05 0 0 1-3.37-3.15 42.43 42.43 0 0 1-4.43-7.9c-.28-.62-.07-.95.61-.97a94.8 94.8 0 0 1 3.43 0c.46 0 .77.28.95.71a21.22 21.22 0 0 0 2.32 4.3c.25.36.5.71.87.97.4.27.72.18.9-.27.13-.29.18-.6.2-.9.1-1.06.11-2.11-.05-3.16-.1-.66-.47-1.08-1.12-1.2-.33-.07-.28-.2-.12-.39.28-.33.54-.53 1.07-.53h3.95c.62.12.76.4.85 1.03v4.39c0 .24.12.96.56 1.12.35.11.58-.17.79-.39.94-1 1.62-2.19 2.22-3.42.27-.54.5-1.1.72-1.66.17-.42.43-.62.9-.61h3.8a2 2 0 0 1 .33.02c.65.11.82.39.62 1.01-.3.99-.92 1.8-1.5 2.63-.64.87-1.32 1.72-1.95 2.6-.58.8-.53 1.22.19 1.92Z" fill="#fff"/></svg>