<?xml version="1.0" encoding="utf-8"?>
<!-- Generator: Adobe Illustrator 19.2.1, SVG Export Plug-In . SVG Version: 6.00 Build 0)  -->
<svg version="1.1" id="Layer_1" xmlns="http://www.w3.org/2000/svg" xmlns:xlink="http://www.w3.org/1999/xlink" x="0px" y="0px"
	 viewBox="0 0 100 100" style="enable-background:new 0 0 100 100;" xml:space="preserve">
<style type="text/css">
	.st0{fill:#B6D5DC;}
</style>
<g>
	<path class="st0" d="M50,73.9c-20.4,0-26.4-4.2-27-4.8l0.2-3.8c0.1-0.1,5.5-4.8,5.5-11.8c0-9.1,2.1-16.4,6.2-21.5
		c3.8-4.7,9.2-7.3,15.2-7.3c6,0,10.5,2.6,14.2,7.3c4.1,5.1,7.2,12.3,7.2,21.5c0,7,5.4,11.8,5.5,11.8l0.2,2.8
		C76.4,68.6,70.4,73.9,50,73.9z M27,66.7c0.7,0.3,1.6,0.6,2.7,0.9c3.6,1.1,10.1,2.4,20.8,2.4c13.1,0,19.1-2,22.5-3.4
		c-2.3-2.9-5.4-6-5.4-12.6c0-8.6-1.9-14.6-5.6-19.1c-3.1-3.9-6.5-6-11.5-6s-10.4,2.1-13.5,6c-3.7,4.6-4.6,10.5-4.6,19.1
		C32.3,60.6,29.3,63.7,27,66.7z"/>
	<path class="st0" d="M50,85c-6.3,0-11.4-6.1-11.4-11.5l3.7-0.4c0,3.9,3.5,8,7.7,8s7.7-4,7.7-8l3.7,0.4C61.4,78.9,56.3,85,50,85z"/>
	<path class="st0" d="M56.3,21.1c-2.5-2.5-10.6-2.5-13,0l-1.6-2.7c4.5-4.5,11.8-4.5,16.3,0L56.3,21.1z"/>
</g>
</svg>
