<svg width="22" height="20" viewBox="0 0 22 20" fill="none" xmlns="http://www.w3.org/2000/svg">
<path d="M11 0C16.8201 0 22 3.9142 22 9.23681C22 11.1808 21.3001 13.0216 19.9704 14.5881L21.1131 18.9391C21.2826 19.5843 20.6609 20.1651 20.0145 19.957L14.1849 18.0807C13.155 18.3415 12.085 18.4736 11 18.4736C5.17622 18.4736 0 14.5556 0 9.23681C0 3.87249 5.23178 0 11 0ZM11 16.7787C12.0185 16.7787 13.0204 16.6448 13.9774 16.381C14.1409 16.3359 14.3141 16.3396 14.4756 16.3914L19.0558 17.8657L18.1924 14.5785C18.1192 14.2997 18.1946 14.0033 18.3926 13.7916C19.6282 12.4706 20.2812 10.8955 20.2812 9.23681C20.2812 5.07814 16.1176 1.69475 11 1.69475C5.88235 1.69475 1.71875 5.07814 1.71875 9.23681C1.71875 13.3955 5.88235 16.7787 11 16.7787ZM9.92578 9.23665C9.92578 9.82176 10.4067 10.296 11 10.296C11.5933 10.296 12.0742 9.82176 12.0742 9.23665C12.0742 8.6517 11.5933 8.17732 11 8.17732C10.4067 8.17732 9.92578 8.6517 9.92578 9.23665ZM5.62891 9.23665C5.62891 9.82176 6.10979 10.296 6.70312 10.296C7.29646 10.296 7.77734 9.82176 7.77734 9.23665C7.77734 8.6517 7.29646 8.17732 6.70312 8.17732C6.10979 8.17732 5.62891 8.6517 5.62891 9.23665ZM14.2227 9.23665C14.2227 9.82176 14.7035 10.296 15.2969 10.296C15.8902 10.296 16.3711 9.82176 16.3711 9.23665C16.3711 8.6517 15.8902 8.17732 15.2969 8.17732C14.7035 8.17732 14.2227 8.6517 14.2227 9.23665Z" fill="white"/>
</svg>
