<svg width="197" height="56" viewBox="0 0 197 56" fill="none" xmlns="http://www.w3.org/2000/svg">
<g clip-path="url(#clip0_1_197)">
<path d="M189.704 55.3867H7.2963C3.46482 55.3867 0.5 52.5218 0.5 48.915V7.08496C0.5 3.47816 3.46482 0.613281 7.2963 0.613281H189.704C193.535 0.613281 196.5 3.47816 196.5 7.08496V48.915C196.5 52.5218 193.535 55.3867 189.704 55.3867Z" stroke="white"/>
<path d="M69.1689 14.3355C69.1689 15.451 68.877 16.427 68.1474 17.1242C67.2719 17.9608 66.2504 18.3791 64.937 18.3791C63.6237 18.3791 62.6022 17.9608 61.7267 17.1242C60.8511 16.2876 60.4133 15.3115 60.4133 14.0566C60.4133 12.8017 60.8511 11.8257 61.7267 10.9891C62.6022 10.1525 63.6237 9.73419 64.937 9.73419C65.5207 9.73419 66.1044 9.87363 66.6882 10.1525C67.2719 10.4314 67.7096 10.7102 68.0015 11.1285L67.2719 11.8257C66.6881 11.1285 65.9585 10.8497 64.937 10.8497C64.0615 10.8497 63.1859 11.1285 62.6022 11.8257C61.8726 12.3834 61.5807 13.22 61.5807 14.1961C61.5807 15.1721 61.8726 16.0087 62.6022 16.5664C63.3319 17.1242 64.0615 17.5425 64.937 17.5425C65.9585 17.5425 66.6882 17.2636 67.4178 16.5664C67.8556 16.1481 68.1474 15.5904 68.1474 14.8932H64.937V13.7778H69.1689V14.3355ZM75.8815 10.8497H71.9415V13.4989H75.5896V14.4749H71.9415V17.1242H75.8815V18.2396H70.7741V9.87363H75.8815V10.8497ZM80.697 18.2396H79.5296V10.8497H77.0489V9.87363H83.1778V10.8497H80.697V18.2396ZM87.4096 18.2396V9.87363H88.577V18.2396H87.4096ZM93.5385 18.2396H92.3711V10.8497H89.8904V9.87363H95.8733V10.8497H93.3926V18.2396H93.5385ZM107.401 17.1242C106.526 17.9608 105.504 18.3791 104.191 18.3791C102.878 18.3791 101.856 17.9608 100.981 17.1242C100.105 16.2876 99.6674 15.3115 99.6674 14.0566C99.6674 12.8017 100.105 11.8257 100.981 10.9891C101.856 10.1525 102.878 9.73419 104.191 9.73419C105.504 9.73419 106.526 10.1525 107.401 10.9891C108.277 11.8257 108.715 12.8017 108.715 14.0566C108.715 15.3115 108.277 16.2876 107.401 17.1242ZM101.856 16.427C102.44 16.9847 103.316 17.403 104.191 17.403C105.067 17.403 105.942 17.1242 106.526 16.427C107.11 15.8693 107.547 15.0327 107.547 14.0566C107.547 13.0806 107.256 12.244 106.526 11.6863C105.942 11.1285 105.067 10.7102 104.191 10.7102C103.316 10.7102 102.44 10.9891 101.856 11.6863C101.273 12.244 100.835 13.0806 100.835 14.0566C100.835 15.0327 101.127 15.8693 101.856 16.427ZM110.32 18.2396V9.87363H111.633L115.865 16.427V9.87363H117.033V18.2396H115.865L111.341 11.4074V18.2396H110.32Z" fill="white" stroke="white" stroke-width="1.18519" stroke-miterlimit="10"/>
<path d="M99.3756 30.5098C95.8733 30.5098 93.1007 33.0196 93.1007 36.5054C93.1007 39.8518 95.8733 42.5011 99.3756 42.5011C102.878 42.5011 105.65 39.9913 105.65 36.5054C105.65 32.8802 102.878 30.5098 99.3756 30.5098ZM99.3756 39.9913C97.4785 39.9913 95.8733 38.4575 95.8733 36.366C95.8733 34.2745 97.4785 32.7407 99.3756 32.7407C101.273 32.7407 102.878 34.1351 102.878 36.366C102.878 38.4575 101.273 39.9913 99.3756 39.9913ZM85.8044 30.5098C82.3022 30.5098 79.5296 33.0196 79.5296 36.5054C79.5296 39.8518 82.3022 42.5011 85.8044 42.5011C89.3067 42.5011 92.0793 39.9913 92.0793 36.5054C92.0793 32.8802 89.3067 30.5098 85.8044 30.5098ZM85.8044 39.9913C83.9074 39.9913 82.3022 38.4575 82.3022 36.366C82.3022 34.2745 83.9074 32.7407 85.8044 32.7407C87.7015 32.7407 89.3067 34.1351 89.3067 36.366C89.3067 38.4575 87.7015 39.9913 85.8044 39.9913ZM69.6067 32.3224V34.8322H75.8815C75.7356 36.2266 75.1519 37.342 74.4222 38.0392C73.5467 38.8758 72.0874 39.8518 69.6067 39.8518C65.6667 39.8518 62.7482 36.9237 62.7482 33.159C62.7482 29.3943 65.8126 26.4662 69.6067 26.4662C71.6496 26.4662 73.2548 27.3028 74.4222 28.2789L76.3193 26.4662C74.7141 25.0719 72.6711 23.9564 69.7526 23.9564C64.4993 23.9564 59.9756 28.1394 59.9756 33.159C59.9756 38.1786 64.4993 42.3616 69.7526 42.3616C72.6711 42.3616 74.7141 41.525 76.4652 39.7124C78.2163 38.0392 78.8 35.6688 78.8 33.8562C78.8 33.2985 78.8 32.7407 78.6541 32.3224H69.6067ZM135.857 34.2745C135.273 32.8802 133.814 30.5098 130.604 30.5098C127.393 30.5098 124.767 32.8802 124.767 36.5054C124.767 39.8518 127.393 42.5011 130.896 42.5011C133.668 42.5011 135.419 40.8279 136.003 39.8518L133.96 38.4575C133.23 39.4335 132.355 40.1307 130.896 40.1307C129.436 40.1307 128.561 39.573 127.831 38.3181L136.149 34.9717L135.857 34.2745ZM127.393 36.2266C127.393 33.9956 129.29 32.7407 130.604 32.7407C131.625 32.7407 132.647 33.2985 132.939 33.9956L127.393 36.2266ZM120.535 41.9433H123.307V24.5142H120.535V41.9433ZM116.157 31.7647C115.427 31.0675 114.26 30.3704 112.801 30.3704C109.736 30.3704 106.818 33.0196 106.818 36.366C106.818 39.7124 109.59 42.2222 112.801 42.2222C114.26 42.2222 115.427 41.525 116.011 40.8279H116.157V41.6645C116.157 43.8954 114.844 45.1503 112.801 45.1503C111.196 45.1503 110.028 44.0348 109.736 43.0588L107.401 44.0348C108.131 45.5686 109.882 47.5207 112.947 47.5207C116.157 47.5207 118.784 45.7081 118.784 41.3856V30.7887H116.157V31.7647ZM112.947 39.9913C111.05 39.9913 109.444 38.4575 109.444 36.366C109.444 34.2745 111.05 32.7407 112.947 32.7407C114.844 32.7407 116.303 34.2745 116.303 36.366C116.303 38.4575 114.844 39.9913 112.947 39.9913ZM148.553 24.5142H141.986V41.9433H144.759V35.39H148.553C151.617 35.39 154.536 33.2985 154.536 29.9521C154.536 26.6057 151.617 24.5142 148.553 24.5142ZM148.699 32.8802H144.759V26.8845H148.699C150.741 26.8845 151.909 28.5577 151.909 29.8126C151.763 31.3464 150.596 32.8802 148.699 32.8802ZM165.48 30.3704C163.437 30.3704 161.394 31.207 160.664 33.0196L163.145 33.9956C163.729 33.0196 164.604 32.7407 165.626 32.7407C167.085 32.7407 168.399 33.5773 168.544 34.9717V35.1111C168.107 34.8322 166.939 34.4139 165.772 34.4139C163.145 34.4139 160.519 35.8083 160.519 38.3181C160.519 40.6884 162.707 42.2222 165.042 42.2222C166.939 42.2222 167.815 41.3856 168.544 40.549H168.69V41.9433H171.317V35.2505C171.025 32.183 168.544 30.3704 165.48 30.3704ZM165.188 39.9913C164.313 39.9913 162.999 39.573 162.999 38.4575C162.999 37.0632 164.604 36.6449 165.918 36.6449C167.085 36.6449 167.669 36.9237 168.399 37.2026C168.107 38.8758 166.647 39.9913 165.188 39.9913ZM180.51 30.7887L177.446 38.3181H177.3L174.09 30.7887H171.171L175.987 41.3856L173.214 47.2418H175.987L183.429 30.7887H180.51ZM155.995 41.9433H158.767V24.5142H155.995V41.9433Z" fill="white"/>
<path d="M15.1763 10.5708C14.7385 10.9891 14.5926 11.6863 14.5926 12.5229V43.3377C14.5926 44.1743 14.8844 44.8715 15.3222 45.2898L15.4682 45.4292L33.563 28.1394V27.8606L15.1763 10.5708Z" fill="url(#paint0_linear_1_197)"/>
<path d="M39.4 33.9956L33.417 28.2789V27.8606L39.4 22.1438L39.5459 22.2832L46.6963 26.1874C48.7393 27.3028 48.7393 29.1155 46.6963 30.2309L39.4 33.9956Z" fill="url(#paint1_linear_1_197)"/>
<path d="M39.5459 33.8562L33.417 28L15.1763 45.4292C15.9059 46.1264 16.9274 46.1264 18.2407 45.5686L39.5459 33.8562Z" fill="url(#paint2_linear_1_197)"/>
<path d="M39.5459 22.1438L18.2407 10.5708C16.9274 9.87361 15.9059 10.013 15.1763 10.7102L33.417 28L39.5459 22.1438Z" fill="url(#paint3_linear_1_197)"/>
<path opacity="0.2" d="M39.4 33.7167L18.2407 45.1503C17.0733 45.8475 16.0519 45.708 15.3222 45.1503L15.1763 45.2897L15.3222 45.4292C16.0519 45.9869 17.0733 46.1263 18.2407 45.4292L39.4 33.7167Z" fill="black"/>
<path opacity="0.12" d="M15.1763 45.1503C14.7385 44.732 14.5926 44.0349 14.5926 43.1983V43.3377C14.5926 44.1743 14.8844 44.8715 15.3222 45.2898V45.1503H15.1763ZM46.6963 29.8126L39.4 33.7168L39.5459 33.8562L46.6963 29.9521C47.7178 29.3943 48.1556 28.6972 48.1556 28C48.1556 28.6972 47.5719 29.2549 46.6963 29.8126Z" fill="black"/>
<path opacity="0.25" d="M18.2407 10.7102L46.6963 26.1874C47.5719 26.7451 48.1556 27.3028 48.1556 28C48.1556 27.3028 47.7178 26.6057 46.6963 26.0479L18.2407 10.5708C16.1978 9.45532 14.5926 10.2919 14.5926 12.5229V12.6623C14.5926 10.5708 16.1978 9.59476 18.2407 10.7102Z" fill="white"/>
</g>
<defs>
<linearGradient id="paint0_linear_1_197" x1="31.8119" y1="12.2579" x2="8.43487" y2="36.722" gradientUnits="userSpaceOnUse">
<stop stop-color="#00A0FF"/>
<stop offset="0.007" stop-color="#00A1FF"/>
<stop offset="0.26" stop-color="#00BEFF"/>
<stop offset="0.512" stop-color="#00D2FF"/>
<stop offset="0.76" stop-color="#00DFFF"/>
<stop offset="1" stop-color="#00E3FF"/>
</linearGradient>
<linearGradient id="paint1_linear_1_197" x1="49.3726" y1="28.0014" x2="14.0629" y2="28.0014" gradientUnits="userSpaceOnUse">
<stop stop-color="#FFE000"/>
<stop offset="0.409" stop-color="#FFBD00"/>
<stop offset="0.775" stop-color="#FFA500"/>
<stop offset="1" stop-color="#FF9C00"/>
</linearGradient>
<linearGradient id="paint2_linear_1_197" x1="36.229" y1="31.2014" x2="4.52958" y2="64.3769" gradientUnits="userSpaceOnUse">
<stop stop-color="#FF3A44"/>
<stop offset="1" stop-color="#C31162"/>
</linearGradient>
<linearGradient id="paint3_linear_1_197" x1="10.6482" y1="0.358667" x2="24.8042" y2="15.1738" gradientUnits="userSpaceOnUse">
<stop stop-color="#32A071"/>
<stop offset="0.069" stop-color="#2DA771"/>
<stop offset="0.476" stop-color="#15CF74"/>
<stop offset="0.801" stop-color="#06E775"/>
<stop offset="1" stop-color="#00F076"/>
</linearGradient>
<clipPath id="clip0_1_197">
<rect width="197" height="56" fill="white"/>
</clipPath>
</defs>
</svg>
