<svg width="197" height="56" viewBox="0 0 197 56" fill="none" xmlns="http://www.w3.org/2000/svg">
<g clip-path="url(#clip0_1_196)">
<path d="M191.307 55.3208H191.306H5.747H5.74649C4.37264 55.3222 3.05599 54.7861 2.08571 53.833C1.11577 52.8801 0.571282 51.5886 0.569412 50.2429V5.76442C0.571281 4.41791 1.11562 3.12557 2.08549 2.17154C3.05567 1.21722 4.37241 0.679645 5.747 0.67926C5.74704 0.67926 5.74708 0.67926 5.74713 0.67926L191.305 0.67926C191.985 0.67926 192.658 0.811203 193.286 1.06737C193.914 1.32353 194.484 1.69878 194.964 2.17133C195.443 2.64387 195.824 3.20442 196.083 3.82076C196.342 4.43709 196.475 5.09737 196.475 5.76396L196.476 50.2432C196.476 50.9094 196.343 51.5692 196.084 52.185C195.824 52.8008 195.444 53.3608 194.964 53.8328C194.485 54.3047 193.915 54.6793 193.287 54.9348C192.659 55.1902 191.986 55.3215 191.307 55.3208Z" stroke="white"/>
<path d="M43.3102 27.6942C43.2673 23.0006 47.213 20.7171 47.3935 20.6108C45.1588 17.4026 41.6952 16.9643 40.478 16.9294C37.569 16.6279 34.7472 18.6434 33.2653 18.6434C31.7539 18.6434 29.4719 16.9585 27.0124 17.008C23.8475 17.056 20.8867 18.8604 19.2629 21.6623C15.9116 27.3752 18.411 35.7707 21.6218 40.3886C23.2279 42.6516 25.1046 45.1753 27.5611 45.0865C29.9644 44.9904 30.8621 43.5793 33.7622 43.5793C36.6358 43.5793 37.4788 45.0865 39.9841 45.0297C42.5633 44.9904 44.1872 42.7579 45.7371 40.4759C47.5931 37.8852 48.3385 35.3309 48.3681 35.1998C48.3089 35.1794 43.3605 33.3183 43.3102 27.6942ZM38.5776 13.8916C39.8702 12.2998 40.7546 10.1344 40.5091 7.93683C38.6383 8.01838 36.2986 9.21107 34.9513 10.7678C33.7593 12.1397 32.6945 14.3881 32.9695 16.5027C35.0711 16.657 37.2288 15.4585 38.5776 13.8916Z" fill="white"/>
<path d="M78.1196 44.7618H74.7609L72.9212 39.0692H66.5263L64.7738 44.7618H61.5039L67.8411 25.3816H71.7543L78.1196 44.7618ZM72.3666 36.6809L70.7028 31.6203C70.5268 31.1033 70.1955 29.8859 69.7104 27.9694H69.6513C69.456 28.7937 69.144 30.0111 68.7166 31.6203L67.0809 36.6809H72.3666ZM94.3848 37.6027C94.3848 39.9794 93.7296 41.858 92.4178 43.2371C91.2435 44.4647 89.7838 45.0778 88.0432 45.0778C86.1634 45.0778 84.8117 44.4181 83.9909 43.0958V50.4282H80.8378V35.3804C80.8378 33.8877 80.7979 32.3572 80.721 30.7873H83.494L83.67 33.0023H83.7291C84.7807 31.3334 86.3764 30.499 88.5179 30.499C90.192 30.499 91.5896 31.1499 92.7077 32.4533C93.8243 33.7596 94.3848 35.4751 94.3848 37.6027ZM91.1726 37.7163C91.1726 36.3561 90.862 35.2348 90.2379 34.3508C89.5561 33.4319 88.6406 32.9717 87.493 32.9717C86.7151 32.9717 86.0082 33.228 85.3767 33.7334C84.7437 34.2431 84.3296 34.9086 84.1358 35.7328C84.0494 36.0411 84.0002 36.3583 83.9894 36.678V39.0095C83.9894 40.0245 84.3059 40.8822 84.9389 41.5842C85.5719 42.2832 86.3942 42.6342 87.4057 42.6342C88.5933 42.6342 89.5176 42.1812 90.1787 41.2827C90.8413 40.3813 91.1726 39.193 91.1726 37.7163ZM110.708 37.6027C110.708 39.9794 110.052 41.858 108.741 43.2371C107.565 44.4647 106.107 45.0778 104.365 45.0778C102.485 45.0778 101.133 44.4181 100.312 43.0958V50.4282H97.1592V35.3804C97.1592 33.8877 97.1193 32.3572 97.0424 30.7873H99.8154L99.9914 33.0023H100.051C101.101 31.3334 102.696 30.499 104.839 30.499C106.512 30.499 107.91 31.1499 109.031 32.4533C110.146 33.7596 110.708 35.4751 110.708 37.6027ZM107.494 37.7163C107.494 36.3561 107.182 35.2348 106.558 34.3508C105.876 33.4319 104.964 32.9717 103.816 32.9717C103.038 32.9717 102.331 33.228 101.697 33.7334C101.064 34.2431 100.651 34.9086 100.457 35.7328C100.361 36.1173 100.309 36.4304 100.309 36.678V39.0095C100.309 40.0245 100.627 40.8822 101.257 41.5842C101.89 42.2817 102.713 42.6342 103.727 42.6342C104.916 42.6342 105.841 42.1812 106.5 41.2827C107.163 40.3813 107.494 39.193 107.494 37.7163ZM128.958 39.3255C128.958 40.9755 128.372 42.3167 127.208 43.3521C125.927 44.4822 124.139 45.0487 121.847 45.0487C119.729 45.0487 118.031 44.6467 116.751 43.8414L117.48 41.2536C118.862 42.0604 120.381 42.4623 122.035 42.4623C123.224 42.4623 124.148 42.1973 124.808 41.6716C125.469 41.1444 125.803 40.4395 125.803 39.5599C125.803 38.7721 125.526 38.1124 124.984 37.575C124.438 37.0391 123.536 36.5396 122.268 36.0809C118.823 34.8154 117.098 32.9645 117.098 30.5296C117.098 28.9393 117.707 27.6374 118.923 26.6194C120.139 25.603 121.751 25.0947 123.756 25.0947C125.547 25.0947 127.039 25.402 128.224 26.0151L127.433 28.5461C126.318 27.9519 125.059 27.6549 123.651 27.6549C122.539 27.6549 121.666 27.9243 121.042 28.4602C120.517 28.9393 120.251 29.5233 120.251 30.2165C120.251 30.981 120.554 31.6159 121.158 32.114C121.681 32.5727 122.637 33.0722 124.018 33.6081C125.713 34.2809 126.958 35.0644 127.755 35.9644C128.558 36.8644 128.958 37.9872 128.958 39.3255ZM139.409 33.1174H135.934V39.9022C135.934 41.6279 136.546 42.4885 137.773 42.4885C138.337 42.4885 138.804 42.4419 139.174 42.3444L139.261 44.7021C138.64 44.9307 137.822 45.0458 136.809 45.0458C135.564 45.0458 134.591 44.6715 133.888 43.923C133.189 43.1744 132.837 41.9206 132.837 40.1556V33.1115H130.766V30.7815H132.837V28.2228L135.934 27.3024V30.7815H139.409V33.1174ZM155.059 37.6595C155.059 39.8075 154.435 41.5711 153.19 42.9502C151.887 44.37 150.153 45.0778 147.993 45.0778C145.908 45.0778 144.25 44.3977 143.013 43.039C141.777 41.6774 141.159 39.9619 141.159 37.8925C141.159 35.727 141.798 33.9533 143.071 32.5742C144.347 31.1936 146.066 30.5033 148.226 30.5033C150.309 30.5033 151.981 31.1849 153.247 32.5451C154.457 33.8644 155.059 35.5683 155.059 37.6595ZM151.791 37.7309C151.791 36.4508 151.51 35.3528 150.946 34.4338C150.285 33.3242 149.339 32.7693 148.113 32.7693C146.85 32.7693 145.881 33.3242 145.221 34.4338C144.656 35.3528 144.375 36.4697 144.375 37.7891C144.375 39.0706 144.656 40.1716 145.221 41.0876C145.903 42.1973 146.854 42.7521 148.086 42.7521C149.291 42.7521 150.236 42.1856 150.92 41.0599C151.499 40.1192 151.791 39.0138 151.791 37.7309ZM165.312 33.5178C164.985 33.4595 164.652 33.4308 164.319 33.4319C163.209 33.4319 162.352 33.8426 161.748 34.6698C161.225 35.3979 160.961 36.3183 160.961 37.4294V44.7618H157.808V35.1882C157.811 33.7212 157.781 32.2544 157.717 30.7888H160.463L160.578 33.4625H160.666C161 32.5436 161.523 31.8023 162.242 31.2475C162.9 30.7627 163.699 30.5001 164.521 30.499C164.813 30.499 165.076 30.5194 165.31 30.5558L165.312 33.5178ZM179.414 37.1134C179.422 37.5854 179.383 38.057 179.299 38.5216H169.839C169.875 39.9022 170.333 40.9594 171.212 41.6876C172.009 42.3371 173.04 42.6633 174.306 42.6633C175.706 42.6633 176.984 42.4448 178.133 42.0036L178.627 44.1574C177.284 44.7341 175.699 45.021 173.87 45.021C171.669 45.021 169.941 44.3831 168.684 43.1104C167.43 41.8361 166.802 40.1235 166.802 37.9784C166.802 35.8727 167.386 34.1178 168.556 32.7183C169.78 31.2242 171.435 30.4771 173.518 30.4771C175.563 30.4771 177.111 31.2242 178.163 32.7183C178.995 33.9023 179.414 35.3702 179.414 37.1134ZM176.407 36.3081C176.43 35.3863 176.222 34.5926 175.795 33.9212C175.249 33.0562 174.409 32.6251 173.284 32.6251C172.253 32.6251 171.413 33.046 170.774 33.8907C170.249 34.562 169.937 35.3688 169.841 36.3052L176.407 36.3081Z" fill="white"/>
<path d="M65.6168 18.5298C64.7398 18.5298 63.9811 18.4876 63.3496 18.4162V9.04652C64.2328 8.91217 65.1253 8.84595 66.019 8.84847C69.635 8.84847 71.3003 10.6004 71.3003 13.4561C71.3003 16.7502 69.3333 18.5298 65.6168 18.5298ZM66.1462 10.0499C65.6582 10.0499 65.2426 10.079 64.898 10.1489V17.2716C65.0844 17.3007 65.4423 17.3138 65.9451 17.3138C68.3143 17.3138 69.6631 15.9857 69.6631 13.4984C69.6631 11.2805 68.443 10.0499 66.1462 10.0499ZM76.4898 18.6012C74.4519 18.6012 73.1312 17.1027 73.1312 15.0682C73.1312 12.9479 74.4799 11.4363 76.6052 11.4363C78.6135 11.4363 79.9638 12.8634 79.9638 14.9561C79.9638 17.1027 78.5721 18.6012 76.4898 18.6012ZM76.549 12.5518C75.4294 12.5518 74.7121 13.5828 74.7121 15.0245C74.7121 16.4386 75.4442 17.4696 76.5342 17.4696C77.6241 17.4696 78.3562 16.3672 78.3562 14.9954C78.3562 13.5974 77.6389 12.5518 76.549 12.5518ZM91.5852 11.5775L89.4038 18.4453H87.9825L87.0789 15.4629C86.8542 14.7334 86.6671 13.9931 86.5184 13.245H86.4888C86.3749 13.9935 86.159 14.7435 85.9298 15.4629L84.9685 18.4453H83.5324L81.4797 11.5775H83.0725L83.8622 14.8425C84.0486 15.6202 84.2054 16.3541 84.3355 17.0473H84.3651C84.479 16.4692 84.6653 15.7469 84.9389 14.8571L85.9298 11.579H87.1928L88.1408 14.7872C88.37 15.5648 88.5563 16.3279 88.7013 17.0488H88.7427C88.8433 16.3425 89.0015 15.5925 89.2159 14.7872L90.0634 11.579L91.5852 11.5775ZM99.6157 18.4453H98.0658V14.5017C98.0658 13.2872 97.5926 12.6785 96.6594 12.6785C95.7409 12.6785 95.1094 13.4561 95.1094 14.3605V18.4453H93.5595V13.5406C93.5595 12.9333 93.5448 12.2824 93.5019 11.5761H94.8654L94.9379 12.6363H94.9808C95.3978 11.9023 96.2438 11.4363 97.1918 11.4363C98.6559 11.4363 99.6172 12.5387 99.6172 14.3328L99.6157 18.4453ZM103.89 18.4453H102.338V8.42615H103.89V18.4453ZM109.541 18.6012C107.504 18.6012 106.182 17.1027 106.182 15.0682C106.182 12.9479 107.531 11.4363 109.655 11.4363C111.665 11.4363 113.013 12.8634 113.013 14.9561C113.015 17.1027 111.622 18.6012 109.541 18.6012ZM109.598 12.5518C108.479 12.5518 107.762 13.5828 107.762 15.0245C107.762 16.4386 108.495 17.4696 109.582 17.4696C110.674 17.4696 111.404 16.3672 111.404 14.9954C111.406 13.5974 110.69 12.5518 109.598 12.5518ZM119.124 18.4453L119.012 17.6546H118.97C118.497 18.291 117.806 18.6012 116.931 18.6012C115.681 18.6012 114.794 17.7391 114.794 16.5799C114.794 14.8847 116.286 14.0081 118.87 14.0081V13.8814C118.87 12.977 118.383 12.5241 117.422 12.5241C116.734 12.5241 116.131 12.6945 115.6 13.0338L115.285 12.0304C115.93 11.6343 116.734 11.4363 117.679 11.4363C119.501 11.4363 120.421 12.3829 120.421 14.2775V16.807C120.421 17.5002 120.452 18.0376 120.522 18.4468L119.124 18.4453ZM118.911 15.0245C117.19 15.0245 116.326 15.4352 116.326 16.4095C116.326 17.1303 116.771 17.4827 117.389 17.4827C118.178 17.4827 118.911 16.89 118.911 16.0847V15.0245ZM127.947 18.4453L127.875 17.3429H127.832C127.387 18.1759 126.639 18.6012 125.593 18.6012C123.911 18.6012 122.666 17.1449 122.666 15.0959C122.666 12.9479 123.957 11.4348 125.72 11.4348C126.653 11.4348 127.314 11.745 127.687 12.3683H127.718V8.42615H129.27V16.5944C129.27 17.2585 129.286 17.8803 129.327 18.4453H127.947ZM127.718 14.4042C127.718 13.443 127.072 12.6231 126.085 12.6231C124.936 12.6231 124.234 13.6265 124.234 15.0391C124.234 16.424 124.963 17.3721 126.054 17.3721C127.029 17.3721 127.718 16.5376 127.718 15.5488V14.4042ZM139.106 18.6012C137.069 18.6012 135.749 17.1027 135.749 15.0682C135.749 12.9479 137.098 11.4363 139.221 11.4363C141.231 11.4363 142.58 12.8634 142.58 14.9561C142.581 17.1027 141.19 18.6012 139.106 18.6012ZM139.164 12.5518C138.046 12.5518 137.328 13.5828 137.328 15.0245C137.328 16.4386 138.06 17.4696 139.149 17.4696C140.24 17.4696 140.971 16.3672 140.971 14.9954C140.974 13.5974 140.257 12.5518 139.164 12.5518ZM150.915 18.4453H149.364V14.5017C149.364 13.2872 148.89 12.6785 147.957 12.6785C147.039 12.6785 146.409 13.4561 146.409 14.3605V18.4453H144.857V13.5406C144.857 12.9333 144.843 12.2824 144.8 11.5761H146.163L146.236 12.6363H146.279C146.694 11.9023 147.542 11.4348 148.488 11.4348C149.952 11.4348 150.915 12.5372 150.915 14.3314V18.4453ZM161.343 12.7222H159.638V16.0571C159.638 16.9061 159.937 17.3298 160.54 17.3298C160.814 17.3298 161.043 17.3007 161.228 17.2585L161.271 18.4177C160.97 18.5313 160.568 18.5881 160.068 18.5881C158.847 18.5881 158.116 17.924 158.116 16.1852V12.7222H157.099V11.5775H158.116V10.3193L159.638 9.86641V11.5761H161.343V12.7222ZM169.548 18.4453H168V14.5309C168 13.3018 167.528 12.6799 166.593 12.6799C165.79 12.6799 165.042 13.2173 165.042 14.3051V18.4453H163.493V8.42615H165.042V12.5518H165.073C165.561 11.8033 166.268 11.4348 167.17 11.4348C168.646 11.4348 169.548 12.5649 169.548 14.3605V18.4453ZM177.954 15.3784H173.303C173.333 16.6789 174.207 17.4128 175.501 17.4128C176.188 17.4128 176.821 17.2993 177.38 17.0881L177.622 18.1483C176.962 18.4308 176.185 18.572 175.282 18.572C173.1 18.572 171.809 17.2148 171.809 15.1105C171.809 13.0047 173.132 11.4217 175.107 11.4217C176.889 11.4217 178.008 12.7222 178.008 14.6867C178.018 14.9185 178 15.1507 177.954 15.3784ZM176.533 14.2906C176.533 13.2304 175.99 12.4819 174.999 12.4819C174.109 12.4819 173.405 13.245 173.305 14.2906H176.533Z" fill="white"/>
</g>
<defs>
<clipPath id="clip0_1_196">
<rect width="197" height="56" fill="white"/>
</clipPath>
</defs>
</svg>
