<?xml version="1.0" encoding="utf-8"?>
<!-- Generator: Adobe Illustrator 19.2.1, SVG Export Plug-In . SVG Version: 6.00 Build 0)  -->
<svg version="1.1" id="Layer_1" xmlns="http://www.w3.org/2000/svg" xmlns:xlink="http://www.w3.org/1999/xlink" x="0px" y="0px"
	 viewBox="0 0 100 100" style="enable-background:new 0 0 100 100;" xml:space="preserve">
<style type="text/css">
	.st0{fill:#B6D5DC;}
</style>
<path class="st0" d="M50,75.7c-0.4,0-0.8-0.1-1.2-0.4C35.9,64.7,30,54.9,27.3,48.4c-0.7-1.6-1.3-3.3-1.7-5c-0.1-0.5-0.2-0.7-0.2-0.8
	C25.2,41,25,39.4,25,37.8c0-14,11.2-25.3,25-25.3s25,11.4,25,25.3c0,1.6-0.1,3.2-0.4,4.8c0,0.1-0.1,0.4-0.2,0.8
	c-0.4,1.7-0.9,3.4-1.7,5c-2.7,6.4-8.6,16.3-21.6,26.8C50.8,75.5,50.4,75.7,50,75.7z M29.1,42c0,0.1,0,0.3,0.1,0.6c0,0,0,0,0,0
	c0.3,1.5,0.8,2.9,1.4,4.3c0,0,0,0,0,0.1c2.4,5.8,7.7,14.7,19.3,24.4C61.6,61.7,66.9,52.8,69.3,47c0,0,0,0,0-0.1
	c0.6-1.4,1.1-2.8,1.4-4.3c0,0,0,0,0,0c0.1-0.3,0.1-0.5,0.1-0.6c0,0,0-0.1,0-0.1c0.3-1.3,0.4-2.7,0.4-4.1c0-11.9-9.6-21.6-21.3-21.6
	c-11.7,0-21.3,9.7-21.3,21.6C28.7,39.2,28.8,40.6,29.1,42C29.1,42,29.1,42,29.1,42z M50.3,52.9c-8.4,0-15.2-6.9-15.2-15.4
	C35.1,29,41.9,22,50.3,22c3.1,0,6,0.9,8.5,2.6c0.8,0.6,1.1,1.7,0.5,2.6c-0.6,0.9-1.7,1.1-2.6,0.5c-1.9-1.3-4.1-2-6.4-2
	c-6.4,0-11.5,5.2-11.5,11.7c0,6.4,5.2,11.7,11.5,11.7s11.5-5.2,11.5-11.7c0-1.6-0.3-3.1-0.9-4.6c-0.4-1,0-2.1,1-2.5
	c0.9-0.4,2,0,2.4,1c0.8,1.9,1.2,4,1.2,6.1C65.5,46,58.7,52.9,50.3,52.9z M72.4,78.3c0-2.1-1.3-5-7.8-7.1c-1-0.3-2,0.2-2.3,1.2
	c-0.3,1,0.2,2,1.2,2.4c3.6,1.2,5.2,2.7,5.2,3.6c0,1.9-6.6,5.5-18.6,5.5s-18.6-3.6-18.6-5.5c0-0.9,1.6-2.3,5-3.5
	c1-0.3,1.5-1.4,1.2-2.4c-0.3-1-1.4-1.5-2.3-1.2c-6.2,2.1-7.5,5-7.5,7.1c0,6.1,11.2,9.2,22.3,9.2C61.1,87.5,72.4,84.3,72.4,78.3z"/>
</svg>
