<svg width="54" height="55" viewBox="0 0 54 55" fill="none" xmlns="http://www.w3.org/2000/svg">
<rect x="26.8701" y="1.89444" width="36" height="36" rx="4" transform="rotate(45 26.8701 1.89444)" stroke="white" stroke-width="2"/>
<path d="M27 31.1379C29.2853 31.1379 31.1379 29.2853 31.1379 27C31.1379 24.7147 29.2853 22.8621 27 22.8621C24.7147 22.8621 22.8621 24.7147 22.8621 27C22.8621 29.2853 24.7147 31.1379 27 31.1379Z" fill="white"/>
<path d="M31.9749 17.1987C29.4956 17.1309 24.533 17.1309 22.0537 17.1987C20.7634 17.2341 19.3007 17.5548 18.3815 18.5353C17.4262 19.5544 17.0652 20.7857 17.0286 22.1631C16.9643 24.5807 17.0286 31.837 17.0286 31.837C17.0705 33.2143 17.4262 34.4457 18.3815 35.4648C19.3007 36.4456 20.7634 36.766 22.0537 36.8013C24.533 36.8692 29.4956 36.8692 31.9749 36.8013C33.2652 36.766 34.7279 36.4452 35.6472 35.4648C36.6024 34.4457 36.9634 33.2144 37 31.837V22.1631C36.9634 20.7857 36.6024 19.5544 35.6472 18.5353C34.7276 17.5545 33.2649 17.2341 31.9749 17.1987ZM27.014 33.4393C25.7385 33.4393 24.4917 33.0617 23.4312 32.3541C22.3707 31.6465 21.5441 30.6409 21.056 29.4642C20.5679 28.2876 20.4402 26.9929 20.6891 25.7438C20.9379 24.4947 21.5521 23.3473 22.454 22.4468C23.3558 21.5462 24.5049 20.933 25.7559 20.6845C27.0068 20.436 28.3035 20.5636 29.4818 21.0509C30.6602 21.5383 31.6674 22.3636 32.376 23.4226C33.0846 24.4815 33.4628 25.7265 33.4628 27C33.4628 28.7078 32.7834 30.3457 31.574 31.5533C30.3646 32.7609 28.7243 33.4393 27.014 33.4393ZM33.4902 21.8899C33.2352 21.8899 32.9858 21.8143 32.7738 21.6727C32.5617 21.5312 32.3965 21.33 32.2989 21.0947C32.2013 20.8594 32.1758 20.6004 32.2256 20.3506C32.2754 20.1008 32.3983 19.8714 32.5787 19.6913C32.7591 19.5112 32.9889 19.3886 33.2391 19.339C33.4892 19.2893 33.7486 19.3148 33.9842 19.4123C34.2199 19.5098 34.4213 19.6748 34.563 19.8866C34.7047 20.0984 34.7803 20.3474 34.7803 20.6021C34.7803 20.7712 34.747 20.9387 34.6821 21.095C34.6173 21.2513 34.5223 21.3933 34.4025 21.5128C34.2827 21.6324 34.1404 21.7273 33.9839 21.792C33.8274 21.8567 33.6596 21.89 33.4902 21.8899Z" fill="white"/>
</svg>
