<?xml version="1.0" encoding="utf-8"?>
<!-- Generator: Adobe Illustrator 19.2.1, SVG Export Plug-In . SVG Version: 6.00 Build 0)  -->
<svg version="1.1" id="Layer_1" xmlns="http://www.w3.org/2000/svg" xmlns:xlink="http://www.w3.org/1999/xlink" x="0px" y="0px"
	 viewBox="0 0 100 100" style="enable-background:new 0 0 100 100;" xml:space="preserve">
<style type="text/css">
	.st0{fill:#B6D5DC;}
</style>
<path class="st0" d="M76.1,81.7H45.5c-2.8,0-8.4-3.7-8.4-6.6V47.8c0-0.6,0.3-1.2,0.9-1.5c6.1-3.4,9.2-9.5,12.4-18.9v-9
	c0-0.3,0.1-0.6,0.2-0.9c1-1.7,2.8-2.7,4.8-2.7c2.6,0,5.4,1.6,7.4,4.2c2,2.7,4.9,8.6,2.5,19h14c3.1,0,10.2,3.2,10.2,8.5
	c0,1.7-0.2,4.4-1.3,6c0.9,2.4,1,6.4-1.6,9.2c0.2,4.7-1,8.1-3.5,10c0,2.5-1.2,5.5-2.9,7.5C79,80.9,77.6,81.7,76.1,81.7z M40.5,49
	v25.8c0.3,0.9,3.6,3.2,5,3.2h30.1c0.4,0,1-0.4,1.6-1c1.3-1.5,2.2-4.2,2-5.9c-0.1-0.7,0.2-1.3,0.8-1.7c2.7-1.4,2.7-5.7,2.5-8.1
	c0-0.5,0.2-1,0.6-1.4c2.4-2,1.6-5.6,1-6.7c-0.3-0.4-0.3-1-0.2-1.5c0.2-0.5,0.6-0.9,1.1-1c-0.1-0.1,0.4-1.4,0.4-3.8
	c0-2.7-4.9-5.1-6.7-5.1H62.9c-0.5,0-1-0.2-1.3-0.6c-0.3-0.4-0.4-0.9-0.3-1.4c2.1-7.4,1.6-14-1.4-17.9c-1.6-2.1-3.4-2.9-4.7-2.9
	c-0.7,0-1.3,0.2-1.7,0.7v8.6c0,0.2,0,0.4-0.1,0.5C50.2,38.3,46.9,45,40.5,49z"/>
<path class="st0" d="M34.6,85H16.3c-3.2,0-5.8-2.6-5.8-5.9v-35c0-3.2,2.6-5.9,5.8-5.9h18.3c3.2,0,5.8,2.6,5.8,5.9v35
	C40.4,82.4,37.8,85,34.6,85z M16.9,42c-1.3,0-2.4,1.1-2.4,2.4v34.1c0,1.4,1.1,2.5,2.4,2.5h17.2c1.3,0,2.4-1.1,2.4-2.5V44.5
	c0-1.3-1.1-2.4-2.4-2.4H16.9z"/>
</svg>
