<svg width="54" height="55" viewBox="0 0 54 55" fill="none" xmlns="http://www.w3.org/2000/svg">
<rect x="26.8701" y="2.37466" width="36" height="36" rx="4" transform="rotate(45 26.8701 2.37466)" stroke="white" stroke-width="2"/>
<path d="M20.1614 28.8259C19.5873 29.9544 20.2391 30.4938 21.7263 31.4153C22.9906 32.1964 24.7371 32.482 25.8591 32.5963C25.3993 33.0383 27.5064 31.0117 21.4378 36.8489C20.1511 38.0823 22.2226 40.0611 23.5084 38.854L26.9894 35.4966C28.3221 36.7787 29.5995 38.0074 30.4704 38.8587C31.7572 40.0705 33.8278 38.1085 32.5551 36.8536C32.4596 36.7628 27.8379 32.3294 28.1198 32.6009C29.2558 32.4867 30.9761 32.1842 32.2254 31.42L32.2245 31.4191C33.7117 30.4929 34.3635 29.9544 33.7978 28.8259C33.456 28.1853 32.5345 27.6496 31.3077 28.5758C31.3077 28.5758 29.651 29.8448 26.9791 29.8448C24.3064 29.8448 22.6506 28.5758 22.6506 28.5758C21.4247 27.645 20.4995 28.1853 20.1614 28.8259Z" fill="white"/>
<path d="M26.9773 28.1339C30.2344 28.1339 32.8941 25.5884 32.8941 22.4549C32.8941 19.3082 30.2344 16.7628 26.9773 16.7628C23.7192 16.7628 21.0595 19.3082 21.0595 22.4549C21.0595 25.5884 23.7192 28.1339 26.9773 28.1339ZM26.9773 19.6463C28.5777 19.6463 29.8832 20.9022 29.8832 22.4549C29.8832 23.9945 28.5777 25.2504 26.9773 25.2504C25.3768 25.2504 24.0713 23.9945 24.0713 22.4549C24.0703 20.9012 25.3758 19.6463 26.9773 19.6463Z" fill="white"/>
</svg>
