<?xml version="1.0" encoding="utf-8"?>
<!-- Generator: Adobe Illustrator 19.2.1, SVG Export Plug-In . SVG Version: 6.00 Build 0)  -->
<svg version="1.1" id="Layer_1" xmlns="http://www.w3.org/2000/svg" xmlns:xlink="http://www.w3.org/1999/xlink" x="0px" y="0px"
	 viewBox="0 0 100 100" style="enable-background:new 0 0 100 100;" xml:space="preserve">
<style type="text/css">
	.st0{fill:#B6D5DC;}
</style>
<g>
	<path class="st0" d="M76.1,83H23.9c-3.8,0-6.9-3.2-6.9-7.1V53.6c0-1.9,0.7-3.6,1.9-4.9c1.3-1.4,3.1-2.2,5-2.2h52.2
		c3.8,0,6.9,3.2,6.9,7.1v22.2C83,79.8,80,83,76.1,83z M23.9,50.1c-0.8,0-1.6,0.4-2.3,1.1c-0.7,0.6-1,1.5-1,2.5v22.2
		c0,1.9,1.5,3.6,3.2,3.6H76c1.8,0,3.2-1.6,3.2-3.6V53.6c0-1.9-1.5-3.6-3.2-3.6H23.9z"/>
	<path class="st0" d="M80.2,49.4h-3.7V23.2c0-1.5-1.2-2.6-2.8-2.6H26.5c-0.7,0-1.5,0.3-2,0.8c-0.5,0.5-0.7,1.1-0.7,1.8v26.2H20V23.2
		c0-1.6,0.7-3.2,1.8-4.4c1.2-1.2,2.9-1.9,4.6-1.9h47.3c3.5,0,6.4,2.8,6.4,6.2V49.4z"/>
	<path class="st0" d="M71,49.6c-1,0-1.8-0.8-1.8-1.8v-4.7H30.4v4.7c0,1-0.8,1.8-1.8,1.8s-1.8-0.8-1.8-1.8v-6.6c0-1,0.8-1.8,1.8-1.8
		h42.4c1,0,1.8,0.8,1.8,1.8v6.6C72.9,48.8,72,49.6,71,49.6z"/>
	<path class="st0" d="M67.8,42c-1,0-1.8-0.8-1.8-1.8v-3.7H34.1v3.7c0,1-0.8,1.8-1.8,1.8c-1,0-1.8-0.8-1.8-1.8v-5.5
		c0-1,0.8-1.8,1.8-1.8h35.5c1,0,1.8,0.8,1.8,1.8v5.5C69.6,41.2,68.7,42,67.8,42z"/>
	<path class="st0" d="M64.5,35.1c-1,0-1.8-0.8-1.8-1.8v-3.5h-25v3.5c0,1-0.8,1.8-1.8,1.8c-1,0-1.8-0.8-1.8-1.8V28
		c0-1,0.8-1.8,1.8-1.8h28.8c1,0,1.8,0.8,1.8,1.8v5.3C66.4,34.3,65.6,35.1,64.5,35.1z"/>
	<path class="st0" d="M59.7,69.8h-19c-1,0-1.8-0.8-1.8-1.8v-4.6c0-1,0.8-1.8,1.8-1.8c1,0,1.8,0.8,1.8,1.8v2.8h15.3v-2.8
		c0-1,0.8-1.8,1.8-1.8c1,0,1.8,0.8,1.8,1.8V68C61.6,69,60.8,69.8,59.7,69.8z"/>
</g>
</svg>
