<svg xmlns="http://www.w3.org/2000/svg" width="347" height="41" fill="none"><path fill="#fff" d="M15 40.44c-2.9 0-5.7-.44-8.42-1.32A17.53 17.53 0 0 1 .25 35.6l2.04-4.29a17.25 17.25 0 0 0 5.61 3.25c2.31.8 4.67 1.2 7.1 1.2 3.18 0 5.57-.53 7.14-1.59a5.07 5.07 0 0 0 2.37-4.35c0-1.32-.44-2.38-1.32-3.18A8.18 8.18 0 0 0 20 24.7a55.93 55.93 0 0 0-5.34-1.48c-2.9-.7-5.24-1.4-7.04-2.1a12 12 0 0 1-4.56-3.18c-1.25-1.47-1.87-3.43-1.87-5.89 0-2.05.53-3.9 1.6-5.56a11.33 11.33 0 0 1 4.95-3.96c2.2-.99 4.93-1.48 8.19-1.48 2.27 0 4.51.3 6.71.88 2.2.59 4.09 1.43 5.66 2.53l-1.81 4.4a19.24 19.24 0 0 0-5.17-2.31 18.7 18.7 0 0 0-5.39-.82c-3.12 0-5.46.56-7.04 1.7a5.24 5.24 0 0 0-2.31 4.4c0 1.32.44 2.4 1.32 3.25.88.8 1.96 1.44 3.24 1.92 1.32.44 3.1.92 5.34 1.43 2.9.7 5.22 1.4 6.98 2.09 1.77.7 3.27 1.76 4.52 3.19 1.28 1.43 1.92 3.36 1.92 5.78 0 2.01-.55 3.86-1.65 5.55a11.3 11.3 0 0 1-5 3.96 21.06 21.06 0 0 1-8.26 1.43ZM71.05 1.5V40h-5.5V22.84H43.44V40h-5.5V1.5h5.5v16.55h22.1V1.5h5.5Zm28.9 38.94c-3.89 0-7.39-.84-10.5-2.53a19.3 19.3 0 0 1-7.38-7.1c-1.76-3-2.64-6.36-2.64-10.06s.88-7.06 2.64-10.06c1.8-3.01 4.26-5.36 7.37-7.04a21.34 21.34 0 0 1 10.5-2.59c3.86 0 7.34.86 10.46 2.58a18.51 18.51 0 0 1 7.31 7.05 19.37 19.37 0 0 1 2.64 10.06c0 3.74-.88 7.11-2.64 10.12a19.02 19.02 0 0 1-7.31 7.04 21.6 21.6 0 0 1-10.45 2.53Zm0-4.9c2.82 0 5.35-.64 7.59-1.92a13.93 13.93 0 0 0 5.33-5.28 14.84 14.84 0 0 0 1.98-7.59c0-2.79-.66-5.3-1.98-7.54a13.82 13.82 0 0 0-5.33-5.33 14.98 14.98 0 0 0-7.6-1.92c-2.81 0-5.38.64-7.7 1.92a14.2 14.2 0 0 0-5.38 5.33 14.87 14.87 0 0 0-1.93 7.54c0 2.79.65 5.32 1.93 7.59 1.32 2.24 3.12 4 5.39 5.28a15.59 15.59 0 0 0 7.7 1.93ZM143.78 1.5c4.98 0 8.9 1.2 11.76 3.58 2.87 2.38 4.3 5.66 4.3 9.84s-1.44 7.46-4.3 9.85c-2.85 2.38-6.78 3.57-11.76 3.57h-9.52V40h-5.5V1.5h15.02Zm-.17 22.05c3.48 0 6.14-.73 7.97-2.2 1.84-1.5 2.75-3.64 2.75-6.43 0-2.79-.91-4.91-2.75-6.38-1.83-1.5-4.49-2.25-7.97-2.25h-9.35v17.27h9.35Zm49.65-3.4h8.14v15.62a23.25 23.25 0 0 1-7.26 3.63 28.2 28.2 0 0 1-8.3 1.26c-4 0-7.6-.84-10.79-2.53a19.5 19.5 0 0 1-7.53-7.1 19.84 19.84 0 0 1-2.7-10.28A18.88 18.88 0 0 1 175.1 3.43 22.74 22.74 0 0 1 186 .83c3.37 0 6.43.57 9.18 1.7a18.2 18.2 0 0 1 6.93 4.96l-5.72 5.28a13.23 13.23 0 0 0-9.95-4.35c-2.46 0-4.64.51-6.55 1.54a11.04 11.04 0 0 0-4.45 4.34 12.78 12.78 0 0 0-1.6 6.44c0 2.38.53 4.51 1.6 6.38a11.53 11.53 0 0 0 4.4 4.4 13.47 13.47 0 0 0 6.49 1.54c2.56 0 4.87-.55 6.93-1.65V20.14Zm33.52 20.51c-5.5 0-9.8-1.52-12.87-4.56-3.04-3.05-4.57-7.4-4.57-13.04V1.5h8.91v21.23c0 6.9 2.86 10.34 8.58 10.34 2.8 0 4.92-.83 6.38-2.48 1.47-1.68 2.2-4.3 2.2-7.86V1.5h8.8v21.56c0 5.65-1.54 10-4.62 13.04-3.04 3.04-7.31 4.56-12.81 4.56ZM253.02 1.5h8.9V40h-8.9V1.5Zm18.05 0h17.49c4.18 0 7.86.8 11.05 2.42a17.52 17.52 0 0 1 7.48 6.71 18.8 18.8 0 0 1 2.7 10.12c0 3.85-.9 7.22-2.7 10.12a17.87 17.87 0 0 1-7.48 6.76A24.64 24.64 0 0 1 288.56 40h-17.5V1.5Zm17.05 31.19c3.85 0 6.9-1.07 9.18-3.2 2.31-2.16 3.47-5.07 3.47-8.74s-1.16-6.56-3.47-8.69c-2.27-2.16-5.33-3.25-9.18-3.25h-8.14V32.7h8.14Zm58.2.16V40H316.5V1.5h29.09v7.15h-20.24v8.36h17.88v6.93h-17.88v8.91h20.95Z"/></svg>