<svg width="54" height="55" viewBox="0 0 54 55" fill="none" xmlns="http://www.w3.org/2000/svg">
<rect x="26.8701" y="2.15433" width="36" height="36" rx="4" transform="rotate(45 26.8701 2.15433)" stroke="white" stroke-width="2"/>
<path d="M37 21.6449C36.2149 21.9826 35.4295 22.1935 34.6448 22.2782C35.5312 21.7464 36.1307 20.9951 36.4431 20.0243C35.6323 20.5054 34.7671 20.8345 33.847 21.0119C33.0365 20.1508 32.0405 19.7201 30.8584 19.7201C29.7273 19.7201 28.7629 20.1189 27.9648 20.9167C27.1671 21.7145 26.7683 22.6789 26.7683 23.8101C26.7683 24.114 26.802 24.4264 26.8696 24.7472C25.198 24.6628 23.6299 24.2428 22.1651 23.4873C20.7004 22.7316 19.4573 21.7249 18.4359 20.4671C18.0644 21.1001 17.8786 21.7882 17.8786 22.5311C17.8786 23.2318 18.0432 23.8819 18.3726 24.4813C18.7018 25.0806 19.1451 25.566 19.7023 25.9375C19.0437 25.9121 18.4275 25.739 17.8535 25.4182V25.4688C17.8535 26.4566 18.1638 27.3239 18.7842 28.0712C19.4047 28.8185 20.1877 29.2888 21.1332 29.4831C20.7786 29.5758 20.4197 29.6223 20.0567 29.6223C19.8203 29.6223 19.5628 29.6012 19.2843 29.5593C19.546 30.378 20.0272 31.051 20.7278 31.5789C21.4285 32.1065 22.2221 32.3785 23.1086 32.3958C21.6228 33.5606 19.9302 34.143 18.0307 34.143C17.6677 34.143 17.3385 34.1265 17.043 34.0925C18.9425 35.3165 21.0361 35.9285 23.3239 35.9285C24.776 35.9285 26.1394 35.6987 27.4137 35.2385C28.6887 34.7786 29.7776 34.1621 30.681 33.3895C31.5841 32.6171 32.3631 31.7286 33.0173 30.7241C33.6715 29.7194 34.1588 28.6706 34.4799 27.5774C34.8006 26.4839 34.961 25.3888 34.961 24.2912C34.961 24.0548 34.9568 23.8776 34.9483 23.7593C35.7505 23.1771 36.4343 22.4721 37 21.6449Z" fill="white"/>
</svg>
