<svg width="54" height="54" viewBox="0 0 54 54" fill="none" xmlns="http://www.w3.org/2000/svg">
<rect x="26.8701" y="1.41421" width="36" height="36" rx="4" transform="rotate(45 26.8701 1.41421)" stroke="white" stroke-width="2"/>
<path fill-rule="evenodd" clip-rule="evenodd" d="M35.5255 28.6359C36.3216 29.4132 37.1619 30.1445 37.8759 31.0001C38.1913 31.3804 38.4899 31.7727 38.7184 32.214C39.0421 32.8413 38.7489 33.5316 38.1864 33.569L34.69 33.5675C33.7882 33.6423 33.0689 33.2793 32.464 32.6627C31.9799 32.1696 31.5316 31.6448 31.0661 31.1351C30.8753 30.9268 30.6756 30.7308 30.437 30.5758C29.9597 30.266 29.5454 30.3609 29.2726 30.8587C28.9948 31.365 28.9318 31.9256 28.9045 32.4899C28.867 33.3132 28.6182 33.5297 27.7912 33.5674C26.0237 33.6507 24.3463 33.3833 22.7881 32.4917C21.4143 31.7057 20.349 30.5961 19.4218 29.3399C17.6164 26.8937 16.2338 24.2058 14.9913 21.4426C14.7116 20.8201 14.9161 20.4859 15.603 20.4741C16.7436 20.4519 17.8841 20.4535 19.0261 20.4725C19.4897 20.4793 19.7965 20.7452 19.9755 21.1831C20.5927 22.7005 21.3478 24.1442 22.2956 25.4823C22.548 25.8386 22.8054 26.1949 23.1719 26.4456C23.5774 26.7233 23.8861 26.6312 24.0768 26.1796C24.1979 25.8932 24.2509 25.5847 24.2781 25.2779C24.3685 24.2226 24.3804 23.1691 24.2219 22.1175C24.1246 21.4612 23.7549 21.0364 23.1001 20.9122C22.7659 20.8489 22.8156 20.7245 22.9774 20.5338C23.2585 20.2048 23.5228 20 24.0497 20H28.0012C28.6232 20.1228 28.7614 20.4022 28.8465 21.0282L28.8499 25.4174C28.8432 25.6597 28.971 26.3788 29.4074 26.5392C29.7568 26.6534 29.987 26.3739 30.1966 26.1524C31.1427 25.1483 31.8179 23.9616 32.4212 22.7328C32.6889 22.1925 32.919 21.6314 33.1421 21.0708C33.3074 20.6547 33.5667 20.45 34.0354 20.4591L37.8384 20.4625C37.9512 20.4625 38.0653 20.4641 38.1745 20.4828C38.8154 20.592 38.991 20.8677 38.793 21.4935C38.4812 22.4753 37.8744 23.2935 37.2811 24.1155C36.6469 24.993 35.9686 25.8406 35.3396 26.7233C34.7618 27.5295 34.8077 27.9358 35.5255 28.6359Z" fill="white"/>
</svg>
